<svg width="223" height="209" viewBox="0 0 223 209" fill="none" xmlns="http://www.w3.org/2000/svg">
<path d="M99.7633 84.1084H74.0967V197.105H99.7633V84.1084Z" fill="#FBE395"/>
<path d="M94.1875 77.2881H76.9307V84.9244H94.1875V77.2881Z" fill="#FBE395"/>
<path d="M91.0506 72.6963H80.0674V77.5573H91.0506V72.6963Z" fill="#FBE395"/>
<path d="M89.7643 68.626H81.3545V73.2263H89.7643V68.626Z" fill="#FBE395"/>
<path d="M38.7165 89.0029H13.0498V202H38.7165V89.0029Z" fill="#FBE395"/>
<path d="M33.1407 82.7959H15.8838V90.4322H33.1407V82.7959Z" fill="#FBE395"/>
<path d="M30.0125 78.2041H19.0293V83.0651H30.0125V78.2041Z" fill="#FBE395"/>
<path d="M28.7252 74.1338H20.3154V78.7341H28.7252V74.1338Z" fill="#FBE395"/>
<path d="M143.275 40.2168H117.608V153.214H143.275V40.2168Z" fill="white"/>
<path d="M137.699 33.2529H120.442V40.8892H137.699V33.2529Z" fill="white"/>
<path d="M134.571 28.6611H123.588V33.5221H134.571V28.6611Z" fill="white"/>
<path d="M133.276 24.5908H124.866V29.1911H133.276V24.5908Z" fill="white"/>
<path d="M122.865 151.657H97.1982V197.887H122.865V151.657Z" fill="#FBE395"/>
<path d="M119.114 108.01H102.084V154.24H119.114V108.01Z" fill="#FBE395"/>
<path d="M141.803 125.267H124.773V198.291H141.803V125.267Z" fill="#FBE395"/>
<path d="M165.712 57.3311H148.683V188.031H165.712V57.3311Z" fill="#FBE395"/>
<path d="M201.564 147.107H190.698V182.724H201.564V147.107Z" fill="#FBE395"/>
<path d="M222.991 138.479H212.126V174.096H222.991V138.479Z" fill="#FBE395"/>
<path d="M193.002 46.457H177.898V188.031H193.002V46.457Z" fill="#FBE395"/>
<path d="M213.32 122.551H200.083V181.337H213.32V122.551Z" fill="#FBE395"/>
<path d="M15.3364 81L11.0978 201.372C11.0978 201.372 10.7278 210.497 19.7515 208.134C25.6552 170.684 26.7568 106.844 23.0986 81H15.3364Z" fill="#FFC400"/>
<path d="M5.46289 81L9.86962 204.19L19.2549 206.351C19.2549 206.351 24.6624 142.368 16.7404 81.0084H5.46289V81Z" fill="#C89C0B"/>
<path d="M5.56395 81H3.56242C2.28413 91.092 -3.89706 145.934 3.78108 208.134C11.8545 209.454 19.7513 208.134 19.7513 208.134C19.7513 208.134 12.6029 141.527 9.87817 121.04C7.64958 104.363 6.07695 86.9122 5.56395 81Z" fill="#FFD549"/>
<path d="M149.482 88.3555H137.726V92.6193H149.482V88.3555Z" fill="#C89C0B"/>
<path d="M151.047 93.1914H134.454V107.791H151.047V93.1914Z" fill="#C89C0B"/>
<path d="M152.333 107.564H132.99V198.931H152.333V107.564Z" fill="#C89C0B"/>
<path d="M151.265 107.018V92.0898H149.793V86.413H148.742V83.9993H144.226V66.4561H141.182V84.0077H136.665V86.4214H135.614V92.0982H134.143V107.026H132.149V199.401H153.275V107.018H151.265ZM138.095 91.1563V89.1967H139.087V91.1563H138.095ZM139.55 91.1563V89.1967H140.542V91.1563H139.55ZM141.013 91.1563V89.1967H142.006V91.1563H141.013ZM142.468 91.1563V89.1967H143.461V91.1563H142.468ZM143.932 91.1563V89.1967H144.924V91.1563H143.932ZM145.395 91.1563V89.1967H146.387V91.1563H145.395ZM146.85 91.1563V89.1967H147.842V91.1563H146.85ZM149.305 89.1967V91.1563H148.313V89.1967H149.305ZM149.633 101.559V99.1121H150.87V101.559H149.633ZM149.053 95.1426V97.346H147.817V95.1426H149.053ZM147.808 101.559V99.1121H149.045V101.559H147.808ZM149.053 103.317V105.764H147.817V103.317H149.053ZM147.228 95.1426V97.346H145.992V95.1426H147.228ZM147.228 103.317V105.764H145.992V103.317H147.228ZM145.412 95.1426V97.346H144.175V95.1426H145.412ZM144.167 101.559V99.1121H145.403V101.559H144.167ZM145.412 103.317V105.764H144.175V103.317H145.412ZM142.35 101.559V99.1121H143.587V101.559H142.35ZM141.77 95.1426V97.346H140.534V95.1426H141.77ZM140.526 101.559V99.1121H141.762V101.559H140.526ZM139.945 95.1426V97.346H138.709V95.1426H139.945ZM139.945 103.317V105.764H138.709V103.317H139.945ZM138.129 95.1426V97.346H136.893V95.1426H138.129ZM138.129 99.1121V101.559H136.893V99.1121H138.129ZM135.068 99.1121H136.304V101.559H135.068V99.1121ZM135.068 103.317H136.304V105.764H135.068V103.317ZM135.017 197.778H133.596V195.466H135.017V197.778ZM135.017 194.305H133.596V191.992H135.017V194.305ZM135.017 190.84H133.596V188.527H135.017V190.84ZM135.017 187.367H133.596V185.054H135.017V187.367ZM135.017 183.902H133.596V181.589H135.017V183.902ZM135.017 180.437H133.596V178.124H135.017V180.437ZM135.017 176.964H133.596V174.651H135.017V176.964ZM135.017 173.499H133.596V171.186H135.017V173.499ZM135.017 170.025H133.596V167.713H135.017V170.025ZM135.017 166.56H133.596V164.248H135.017V166.56ZM135.017 163.095H133.596V160.783H135.017V163.095ZM135.017 159.622H133.596V157.309H135.017V159.622ZM135.017 156.157H133.596V153.844H135.017V156.157ZM135.017 152.684H133.596V150.371H135.017V152.684ZM135.017 149.219H133.596V146.906H135.017V149.219ZM135.017 145.754H133.596V143.441H135.017V145.754ZM135.017 142.281H133.596V139.968H135.017V142.281ZM135.017 138.816H133.596V136.503H135.017V138.816ZM135.017 135.342H133.596V133.03H135.017V135.342ZM135.017 131.878H133.596V129.565H135.017V131.878ZM135.017 128.404H133.596V126.091H135.017V128.404ZM135.017 124.939H133.596V122.627H135.017V124.939ZM135.017 121.474H133.596V119.162H135.017V121.474ZM135.017 118.001H133.596V115.688H135.017V118.001ZM135.017 114.536H133.596V112.223H135.017V114.536ZM135.017 111.063H133.596V108.75H135.017V111.063ZM136.85 197.778H135.429V195.466H136.85V197.778ZM136.85 194.305H135.429V191.992H136.85V194.305ZM136.85 190.84H135.429V188.527H136.85V190.84ZM136.85 187.367H135.429V185.054H136.85V187.367ZM136.85 183.902H135.429V181.589H136.85V183.902ZM136.85 180.437H135.429V178.124H136.85V180.437ZM136.85 176.964H135.429V174.651H136.85V176.964ZM136.85 173.499H135.429V171.186H136.85V173.499ZM136.85 170.025H135.429V167.713H136.85V170.025ZM136.85 166.56H135.429V164.248H136.85V166.56ZM136.85 163.095H135.429V160.783H136.85V163.095ZM136.85 159.622H135.429V157.309H136.85V159.622ZM136.85 156.157H135.429V153.844H136.85V156.157ZM136.85 152.684H135.429V150.371H136.85V152.684ZM136.85 149.219H135.429V146.906H136.85V149.219ZM136.85 145.754H135.429V143.441H136.85V145.754ZM136.85 142.281H135.429V139.968H136.85V142.281ZM136.85 138.816H135.429V136.503H136.85V138.816ZM136.85 135.342H135.429V133.03H136.85V135.342ZM136.85 131.878H135.429V129.565H136.85V131.878ZM136.85 128.404H135.429V126.091H136.85V128.404ZM136.85 124.939H135.429V122.627H136.85V124.939ZM136.85 121.474H135.429V119.162H136.85V121.474ZM136.85 118.001H135.429V115.688H136.85V118.001ZM136.85 114.536H135.429V112.223H136.85V114.536ZM136.85 111.063H135.429V108.75H136.85V111.063ZM138.692 197.778H137.271V195.466H138.692V197.778ZM138.692 194.305H137.271V191.992H138.692V194.305ZM138.692 190.84H137.271V188.527H138.692V190.84ZM138.692 187.367H137.271V185.054H138.692V187.367ZM138.692 183.902H137.271V181.589H138.692V183.902ZM138.692 180.437H137.271V178.124H138.692V180.437ZM138.692 176.964H137.271V174.651H138.692V176.964ZM138.692 173.499H137.271V171.186H138.692V173.499ZM138.692 170.025H137.271V167.713H138.692V170.025ZM138.692 166.56H137.271V164.248H138.692V166.56ZM138.692 163.095H137.271V160.783H138.692V163.095ZM138.692 159.622H137.271V157.309H138.692V159.622ZM138.692 156.157H137.271V153.844H138.692V156.157ZM138.692 152.684H137.271V150.371H138.692V152.684ZM138.692 149.219H137.271V146.906H138.692V149.219ZM138.692 145.754H137.271V143.441H138.692V145.754ZM138.692 142.281H137.271V139.968H138.692V142.281ZM138.692 138.816H137.271V136.503H138.692V138.816ZM138.692 135.342H137.271V133.03H138.692V135.342ZM138.692 131.878H137.271V129.565H138.692V131.878ZM138.692 128.404H137.271V126.091H138.692V128.404ZM138.692 124.939H137.271V122.627H138.692V124.939ZM138.692 121.474H137.271V119.162H138.692V121.474ZM138.692 118.001H137.271V115.688H138.692V118.001ZM138.692 114.536H137.271V112.223H138.692V114.536ZM138.692 111.063H137.271V108.75H138.692V111.063ZM140.534 197.778H139.113V195.466H140.534V197.778ZM140.534 194.305H139.113V191.992H140.534V194.305ZM140.534 190.84H139.113V188.527H140.534V190.84ZM140.534 187.367H139.113V185.054H140.534V187.367ZM140.534 183.902H139.113V181.589H140.534V183.902ZM140.534 180.437H139.113V178.124H140.534V180.437ZM140.534 176.964H139.113V174.651H140.534V176.964ZM140.534 173.499H139.113V171.186H140.534V173.499ZM140.534 170.025H139.113V167.713H140.534V170.025ZM140.534 166.56H139.113V164.248H140.534V166.56ZM140.534 163.095H139.113V160.783H140.534V163.095ZM140.534 159.622H139.113V157.309H140.534V159.622ZM140.534 156.157H139.113V153.844H140.534V156.157ZM140.534 152.684H139.113V150.371H140.534V152.684ZM140.534 149.219H139.113V146.906H140.534V149.219ZM140.534 145.754H139.113V143.441H140.534V145.754ZM140.534 142.281H139.113V139.968H140.534V142.281ZM140.534 138.816H139.113V136.503H140.534V138.816ZM140.534 135.342H139.113V133.03H140.534V135.342ZM140.534 131.878H139.113V129.565H140.534V131.878ZM140.534 128.404H139.113V126.091H140.534V128.404ZM140.534 124.939H139.113V122.627H140.534V124.939ZM140.534 121.474H139.113V119.162H140.534V121.474ZM140.534 118.001H139.113V115.688H140.534V118.001ZM140.534 114.536H139.113V112.223H140.534V114.536ZM142.376 197.778H140.954V195.466H142.376V197.778ZM142.376 194.305H140.954V191.992H142.376V194.305ZM142.376 190.84H140.954V188.527H142.376V190.84ZM142.376 187.367H140.954V185.054H142.376V187.367ZM142.376 183.902H140.954V181.589H142.376V183.902ZM142.376 180.437H140.954V178.124H142.376V180.437ZM142.376 176.964H140.954V174.651H142.376V176.964ZM142.376 173.499H140.954V171.186H142.376V173.499ZM142.376 170.025H140.954V167.713H142.376V170.025ZM142.376 166.56H140.954V164.248H142.376V166.56ZM142.376 163.095H140.954V160.783H142.376V163.095ZM142.376 159.622H140.954V157.309H142.376V159.622ZM142.376 156.157H140.954V153.844H142.376V156.157ZM142.376 152.684H140.954V150.371H142.376V152.684ZM142.376 149.219H140.954V146.906H142.376V149.219ZM142.376 145.754H140.954V143.441H142.376V145.754ZM142.376 142.281H140.954V139.968H142.376V142.281ZM142.376 138.816H140.954V136.503H142.376V138.816ZM142.376 135.342H140.954V133.03H142.376V135.342ZM142.376 131.878H140.954V129.565H142.376V131.878ZM142.376 128.404H140.954V126.091H142.376V128.404ZM142.376 124.939H140.954V122.627H142.376V124.939ZM142.376 121.474H140.954V119.162H142.376V121.474ZM142.376 118.001H140.954V115.688H142.376V118.001ZM142.376 114.536H140.954V112.223H142.376V114.536ZM142.376 111.063H140.954V108.75H142.376V111.063ZM144.209 197.778H142.788V195.466H144.209V197.778ZM144.209 194.305H142.788V191.992H144.209V194.305ZM144.209 190.84H142.788V188.527H144.209V190.84ZM144.209 187.367H142.788V185.054H144.209V187.367ZM144.209 183.902H142.788V181.589H144.209V183.902ZM144.209 180.437H142.788V178.124H144.209V180.437ZM144.209 176.964H142.788V174.651H144.209V176.964ZM144.209 173.499H142.788V171.186H144.209V173.499ZM144.209 170.025H142.788V167.713H144.209V170.025ZM144.209 166.56H142.788V164.248H144.209V166.56ZM144.209 163.095H142.788V160.783H144.209V163.095ZM144.209 159.622H142.788V157.309H144.209V159.622ZM144.209 156.157H142.788V153.844H144.209V156.157ZM144.209 152.684H142.788V150.371H144.209V152.684ZM144.209 149.219H142.788V146.906H144.209V149.219ZM144.209 145.754H142.788V143.441H144.209V145.754ZM144.209 142.281H142.788V139.968H144.209V142.281ZM144.209 138.816H142.788V136.503H144.209V138.816ZM144.209 135.342H142.788V133.03H144.209V135.342ZM144.209 131.878H142.788V129.565H144.209V131.878ZM144.209 128.404H142.788V126.091H144.209V128.404ZM144.209 124.939H142.788V122.627H144.209V124.939ZM144.209 121.474H142.788V119.162H144.209V121.474ZM144.209 118.001H142.788V115.688H144.209V118.001ZM144.209 114.536H142.788V112.223H144.209V114.536ZM144.209 111.063H142.788V108.75H144.209V111.063ZM146.051 197.778H144.63V195.466H146.051V197.778ZM146.051 194.305H144.63V191.992H146.051V194.305ZM146.051 190.84H144.63V188.527H146.051V190.84ZM146.051 187.367H144.63V185.054H146.051V187.367ZM146.051 183.902H144.63V181.589H146.051V183.902ZM146.051 180.437H144.63V178.124H146.051V180.437ZM146.051 176.964H144.63V174.651H146.051V176.964ZM146.051 173.499H144.63V171.186H146.051V173.499ZM146.051 170.025H144.63V167.713H146.051V170.025ZM146.051 166.56H144.63V164.248H146.051V166.56ZM146.051 163.095H144.63V160.783H146.051V163.095ZM146.051 159.622H144.63V157.309H146.051V159.622ZM146.051 156.157H144.63V153.844H146.051V156.157ZM146.051 152.684H144.63V150.371H146.051V152.684ZM146.051 149.219H144.63V146.906H146.051V149.219ZM146.051 145.754H144.63V143.441H146.051V145.754ZM146.051 142.281H144.63V139.968H146.051V142.281ZM146.051 138.816H144.63V136.503H146.051V138.816ZM146.051 135.342H144.63V133.03H146.051V135.342ZM146.051 131.878H144.63V129.565H146.051V131.878ZM146.051 128.404H144.63V126.091H146.051V128.404ZM146.051 124.939H144.63V122.627H146.051V124.939ZM146.051 121.474H144.63V119.162H146.051V121.474ZM146.051 118.001H144.63V115.688H146.051V118.001ZM146.051 114.536H144.63V112.223H146.051V114.536ZM146.051 111.063H144.63V108.75H146.051V111.063ZM147.951 197.778H146.53V195.466H147.951V197.778ZM147.951 194.305H146.53V191.992H147.951V194.305ZM147.951 190.84H146.53V188.527H147.951V190.84ZM147.951 187.367H146.53V185.054H147.951V187.367ZM147.951 183.902H146.53V181.589H147.951V183.902ZM147.951 180.437H146.53V178.124H147.951V180.437ZM147.951 176.964H146.53V174.651H147.951V176.964ZM147.951 173.499H146.53V171.186H147.951V173.499ZM147.951 170.025H146.53V167.713H147.951V170.025ZM147.951 166.56H146.53V164.248H147.951V166.56ZM147.951 163.095H146.53V160.783H147.951V163.095ZM147.951 159.622H146.53V157.309H147.951V159.622ZM147.951 156.157H146.53V153.844H147.951V156.157ZM147.951 152.684H146.53V150.371H147.951V152.684ZM147.951 149.219H146.53V146.906H147.951V149.219ZM147.951 145.754H146.53V143.441H147.951V145.754ZM147.951 142.281H146.53V139.968H147.951V142.281ZM147.951 138.816H146.53V136.503H147.951V138.816ZM147.951 135.342H146.53V133.03H147.951V135.342ZM147.951 131.878H146.53V129.565H147.951V131.878ZM147.951 128.404H146.53V126.091H147.951V128.404ZM147.951 124.939H146.53V122.627H147.951V124.939ZM147.951 121.474H146.53V119.162H147.951V121.474ZM147.951 118.001H146.53V115.688H147.951V118.001ZM147.951 114.536H146.53V112.223H147.951V114.536ZM147.951 111.063H146.53V108.75H147.951V111.063ZM149.793 197.778H148.372V195.466H149.793V197.778ZM149.793 194.305H148.372V191.992H149.793V194.305ZM149.793 190.84H148.372V188.527H149.793V190.84ZM149.793 187.367H148.372V185.054H149.793V187.367ZM149.793 183.902H148.372V181.589H149.793V183.902ZM149.793 180.437H148.372V178.124H149.793V180.437ZM149.793 176.964H148.372V174.651H149.793V176.964ZM149.793 173.499H148.372V171.186H149.793V173.499ZM149.793 170.025H148.372V167.713H149.793V170.025ZM149.793 166.56H148.372V164.248H149.793V166.56ZM149.793 163.095H148.372V160.783H149.793V163.095ZM149.793 159.622H148.372V157.309H149.793V159.622ZM149.793 156.157H148.372V153.844H149.793V156.157ZM149.793 152.684H148.372V150.371H149.793V152.684ZM149.793 149.219H148.372V146.906H149.793V149.219ZM149.793 145.754H148.372V143.441H149.793V145.754ZM149.793 142.281H148.372V139.968H149.793V142.281ZM149.793 138.816H148.372V136.503H149.793V138.816ZM149.793 135.342H148.372V133.03H149.793V135.342ZM149.793 131.878H148.372V129.565H149.793V131.878ZM149.793 128.404H148.372V126.091H149.793V128.404ZM149.793 124.939H148.372V122.627H149.793V124.939ZM149.793 121.474H148.372V119.162H149.793V121.474ZM149.793 118.001H148.372V115.688H149.793V118.001ZM149.793 114.536H148.372V112.223H149.793V114.536ZM149.793 111.063H148.372V108.75H149.793V111.063ZM151.635 197.778H150.214V195.466H151.635V197.778ZM151.635 194.305H150.214V191.992H151.635V194.305ZM151.635 190.84H150.214V188.527H151.635V190.84ZM151.635 187.367H150.214V185.054H151.635V187.367ZM151.635 183.902H150.214V181.589H151.635V183.902ZM151.635 180.437H150.214V178.124H151.635V180.437ZM151.635 176.964H150.214V174.651H151.635V176.964ZM151.635 173.499H150.214V171.186H151.635V173.499ZM151.635 170.025H150.214V167.713H151.635V170.025ZM151.635 166.56H150.214V164.248H151.635V166.56ZM151.635 163.095H150.214V160.783H151.635V163.095ZM151.635 159.622H150.214V157.309H151.635V159.622ZM151.635 156.157H150.214V153.844H151.635V156.157ZM151.635 152.684H150.214V150.371H151.635V152.684ZM151.635 149.219H150.214V146.906H151.635V149.219ZM151.635 145.754H150.214V143.441H151.635V145.754ZM151.635 142.281H150.214V139.968H151.635V142.281ZM151.635 138.816H150.214V136.503H151.635V138.816ZM151.635 135.342H150.214V133.03H151.635V135.342ZM151.635 131.878H150.214V129.565H151.635V131.878ZM151.635 128.404H150.214V126.091H151.635V128.404ZM151.635 124.939H150.214V122.627H151.635V124.939ZM151.635 121.474H150.214V119.162H151.635V121.474ZM151.635 118.001H150.214V115.688H151.635V118.001ZM151.635 114.536H150.214V112.223H151.635V114.536ZM151.635 111.063H150.214V108.75H151.635V111.063Z" fill="#FFD549"/>
<path d="M194.961 128.917H182.019V187.535H194.961V128.917Z" fill="#C89C0B"/>
<path d="M181.632 128.598V188.031H195.23V128.598H181.632ZM183.482 186.98H182.565V185.491H183.482V186.98ZM183.482 184.751H182.565V183.263H183.482V184.751ZM183.482 182.514H182.565V181.026H183.482V182.514ZM183.482 180.286H182.565V178.797H183.482V180.286ZM183.482 178.049H182.565V176.56H183.482V178.049ZM183.482 175.811H182.565V174.323H183.482V175.811ZM183.482 173.583H182.565V172.094H183.482V173.583ZM183.482 171.346H182.565V169.857H183.482V171.346ZM183.482 169.117H182.565V167.629H183.482V169.117ZM183.482 166.88H182.565V165.391H183.482V166.88ZM183.482 164.651H182.565V163.163H183.482V164.651ZM183.482 162.414H182.565V160.926H183.482V162.414ZM183.482 160.186H182.565V158.697H183.482V160.186ZM183.482 157.949H182.565V156.46H183.482V157.949ZM183.482 155.712H182.565V154.223H183.482V155.712ZM183.482 153.483H182.565V151.994H183.482V153.483ZM183.482 151.246H182.565V149.757H183.482V151.246ZM183.482 149.017H182.565V147.529H183.482V149.017ZM183.482 146.78H182.565V145.292H183.482V146.78ZM183.482 144.551H182.565V143.063H183.482V144.551ZM183.482 142.314H182.565V140.826H183.482V142.314ZM183.482 140.086H182.565V138.597H183.482V140.086ZM183.482 137.849H182.565V136.36H183.482V137.849ZM183.482 135.612H182.565V134.123H183.482V135.612ZM183.482 133.383H182.565V131.894H183.482V133.383ZM183.482 131.146H182.565V129.657H183.482V131.146ZM184.668 186.98H183.751V185.491H184.668V186.98ZM184.668 184.751H183.751V183.263H184.668V184.751ZM184.668 182.514H183.751V181.026H184.668V182.514ZM184.668 180.286H183.751V178.797H184.668V180.286ZM184.668 178.049H183.751V176.56H184.668V178.049ZM184.668 175.811H183.751V174.323H184.668V175.811ZM184.668 173.583H183.751V172.094H184.668V173.583ZM184.668 171.346H183.751V169.857H184.668V171.346ZM184.668 169.117H183.751V167.629H184.668V169.117ZM184.668 166.88H183.751V165.391H184.668V166.88ZM184.668 164.651H183.751V163.163H184.668V164.651ZM184.668 162.414H183.751V160.926H184.668V162.414ZM184.668 160.186H183.751V158.697H184.668V160.186ZM184.668 157.949H183.751V156.46H184.668V157.949ZM184.668 155.712H183.751V154.223H184.668V155.712ZM184.668 153.483H183.751V151.994H184.668V153.483ZM184.668 151.246H183.751V149.757H184.668V151.246ZM184.668 149.017H183.751V147.529H184.668V149.017ZM184.668 146.78H183.751V145.292H184.668V146.78ZM184.668 144.551H183.751V143.063H184.668V144.551ZM184.668 142.314H183.751V140.826H184.668V142.314ZM184.668 140.086H183.751V138.597H184.668V140.086ZM184.668 137.849H183.751V136.36H184.668V137.849ZM184.668 135.612H183.751V134.123H184.668V135.612ZM184.668 133.383H183.751V131.894H184.668V133.383ZM184.668 131.146H183.751V129.657H184.668V131.146ZM185.854 186.98H184.937V185.491H185.854V186.98ZM185.854 184.751H184.937V183.263H185.854V184.751ZM185.854 182.514H184.937V181.026H185.854V182.514ZM185.854 180.286H184.937V178.797H185.854V180.286ZM185.854 178.049H184.937V176.56H185.854V178.049ZM185.854 175.811H184.937V174.323H185.854V175.811ZM185.854 173.583H184.937V172.094H185.854V173.583ZM185.854 171.346H184.937V169.857H185.854V171.346ZM185.854 169.117H184.937V167.629H185.854V169.117ZM185.854 166.88H184.937V165.391H185.854V166.88ZM185.854 164.651H184.937V163.163H185.854V164.651ZM185.854 162.414H184.937V160.926H185.854V162.414ZM185.854 160.186H184.937V158.697H185.854V160.186ZM185.854 157.949H184.937V156.46H185.854V157.949ZM185.854 155.712H184.937V154.223H185.854V155.712ZM185.854 153.483H184.937V151.994H185.854V153.483ZM185.854 151.246H184.937V149.757H185.854V151.246ZM185.854 149.017H184.937V147.529H185.854V149.017ZM185.854 146.78H184.937V145.292H185.854V146.78ZM185.854 144.551H184.937V143.063H185.854V144.551ZM185.854 142.314H184.937V140.826H185.854V142.314ZM185.854 140.086H184.937V138.597H185.854V140.086ZM185.854 137.849H184.937V136.36H185.854V137.849ZM185.854 135.612H184.937V134.123H185.854V135.612ZM185.854 133.383H184.937V131.894H185.854V133.383ZM185.854 131.146H184.937V129.657H185.854V131.146ZM187.039 186.98H186.123V185.491H187.039V186.98ZM187.039 184.751H186.123V183.263H187.039V184.751ZM187.039 182.514H186.123V181.026H187.039V182.514ZM187.039 180.286H186.123V178.797H187.039V180.286ZM187.039 178.049H186.123V176.56H187.039V178.049ZM187.039 175.811H186.123V174.323H187.039V175.811ZM187.039 173.583H186.123V172.094H187.039V173.583ZM187.039 171.346H186.123V169.857H187.039V171.346ZM187.039 169.117H186.123V167.629H187.039V169.117ZM187.039 166.88H186.123V165.391H187.039V166.88ZM187.039 164.651H186.123V163.163H187.039V164.651ZM187.039 162.414H186.123V160.926H187.039V162.414ZM187.039 160.186H186.123V158.697H187.039V160.186ZM187.039 157.949H186.123V156.46H187.039V157.949ZM187.039 155.712H186.123V154.223H187.039V155.712ZM187.039 153.483H186.123V151.994H187.039V153.483ZM187.039 151.246H186.123V149.757H187.039V151.246ZM187.039 149.017H186.123V147.529H187.039V149.017ZM187.039 146.78H186.123V145.292H187.039V146.78ZM187.039 144.551H186.123V143.063H187.039V144.551ZM187.039 142.314H186.123V140.826H187.039V142.314ZM187.039 140.086H186.123V138.597H187.039V140.086ZM187.039 137.849H186.123V136.36H187.039V137.849ZM187.039 135.612H186.123V134.123H187.039V135.612ZM187.039 133.383H186.123V131.894H187.039V133.383ZM188.217 186.98H187.3V185.491H188.217V186.98ZM188.217 184.751H187.3V183.263H188.217V184.751ZM188.217 182.514H187.3V181.026H188.217V182.514ZM188.217 180.286H187.3V178.797H188.217V180.286ZM188.217 178.049H187.3V176.56H188.217V178.049ZM188.217 175.811H187.3V174.323H188.217V175.811ZM188.217 173.583H187.3V172.094H188.217V173.583ZM188.217 171.346H187.3V169.857H188.217V171.346ZM188.217 169.117H187.3V167.629H188.217V169.117ZM188.217 166.88H187.3V165.391H188.217V166.88ZM188.217 164.651H187.3V163.163H188.217V164.651ZM188.217 162.414H187.3V160.926H188.217V162.414ZM188.217 160.186H187.3V158.697H188.217V160.186ZM188.217 157.949H187.3V156.46H188.217V157.949ZM188.217 155.712H187.3V154.223H188.217V155.712ZM188.217 153.483H187.3V151.994H188.217V153.483ZM188.217 151.246H187.3V149.757H188.217V151.246ZM188.217 149.017H187.3V147.529H188.217V149.017ZM188.217 146.78H187.3V145.292H188.217V146.78ZM188.217 144.551H187.3V143.063H188.217V144.551ZM188.217 142.314H187.3V140.826H188.217V142.314ZM188.217 140.086H187.3V138.597H188.217V140.086ZM188.217 137.849H187.3V136.36H188.217V137.849ZM188.217 135.612H187.3V134.123H188.217V135.612ZM188.217 133.383H187.3V131.894H188.217V133.383ZM188.217 131.146H187.3V129.657H188.217V131.146ZM189.402 186.98H188.486V185.491H189.402V186.98ZM189.402 184.751H188.486V183.263H189.402V184.751ZM189.402 182.514H188.486V181.026H189.402V182.514ZM189.402 180.286H188.486V178.797H189.402V180.286ZM189.402 178.049H188.486V176.56H189.402V178.049ZM189.402 175.811H188.486V174.323H189.402V175.811ZM189.402 173.583H188.486V172.094H189.402V173.583ZM189.402 171.346H188.486V169.857H189.402V171.346ZM189.402 169.117H188.486V167.629H189.402V169.117ZM189.402 166.88H188.486V165.391H189.402V166.88ZM189.402 164.651H188.486V163.163H189.402V164.651ZM189.402 162.414H188.486V160.926H189.402V162.414ZM189.402 160.186H188.486V158.697H189.402V160.186ZM189.402 157.949H188.486V156.46H189.402V157.949ZM189.402 155.712H188.486V154.223H189.402V155.712ZM189.402 153.483H188.486V151.994H189.402V153.483ZM189.402 151.246H188.486V149.757H189.402V151.246ZM189.402 149.017H188.486V147.529H189.402V149.017ZM189.402 146.78H188.486V145.292H189.402V146.78ZM189.402 144.551H188.486V143.063H189.402V144.551ZM189.402 142.314H188.486V140.826H189.402V142.314ZM189.402 140.086H188.486V138.597H189.402V140.086ZM189.402 137.849H188.486V136.36H189.402V137.849ZM189.402 135.612H188.486V134.123H189.402V135.612ZM189.402 133.383H188.486V131.894H189.402V133.383ZM189.402 131.146H188.486V129.657H189.402V131.146ZM190.588 186.98H189.672V185.491H190.588V186.98ZM190.588 184.751H189.672V183.263H190.588V184.751ZM190.588 182.514H189.672V181.026H190.588V182.514ZM190.588 180.286H189.672V178.797H190.588V180.286ZM190.588 178.049H189.672V176.56H190.588V178.049ZM190.588 175.811H189.672V174.323H190.588V175.811ZM190.588 173.583H189.672V172.094H190.588V173.583ZM190.588 171.346H189.672V169.857H190.588V171.346ZM190.588 169.117H189.672V167.629H190.588V169.117ZM190.588 166.88H189.672V165.391H190.588V166.88ZM190.588 164.651H189.672V163.163H190.588V164.651ZM190.588 162.414H189.672V160.926H190.588V162.414ZM190.588 160.186H189.672V158.697H190.588V160.186ZM190.588 157.949H189.672V156.46H190.588V157.949ZM190.588 155.712H189.672V154.223H190.588V155.712ZM190.588 153.483H189.672V151.994H190.588V153.483ZM190.588 151.246H189.672V149.757H190.588V151.246ZM190.588 149.017H189.672V147.529H190.588V149.017ZM190.588 146.78H189.672V145.292H190.588V146.78ZM190.588 144.551H189.672V143.063H190.588V144.551ZM190.588 142.314H189.672V140.826H190.588V142.314ZM190.588 140.086H189.672V138.597H190.588V140.086ZM190.588 137.849H189.672V136.36H190.588V137.849ZM190.588 135.612H189.672V134.123H190.588V135.612ZM190.588 133.383H189.672V131.894H190.588V133.383ZM190.588 131.146H189.672V129.657H190.588V131.146ZM191.816 186.98H190.899V185.491H191.816V186.98ZM191.816 184.751H190.899V183.263H191.816V184.751ZM191.816 182.514H190.899V181.026H191.816V182.514ZM191.816 180.286H190.899V178.797H191.816V180.286ZM191.816 178.049H190.899V176.56H191.816V178.049ZM191.816 175.811H190.899V174.323H191.816V175.811ZM191.816 173.583H190.899V172.094H191.816V173.583ZM191.816 171.346H190.899V169.857H191.816V171.346ZM191.816 169.117H190.899V167.629H191.816V169.117ZM191.816 166.88H190.899V165.391H191.816V166.88ZM191.816 164.651H190.899V163.163H191.816V164.651ZM191.816 162.414H190.899V160.926H191.816V162.414ZM191.816 160.186H190.899V158.697H191.816V160.186ZM191.816 157.949H190.899V156.46H191.816V157.949ZM191.816 155.712H190.899V154.223H191.816V155.712ZM191.816 153.483H190.899V151.994H191.816V153.483ZM191.816 151.246H190.899V149.757H191.816V151.246ZM191.816 149.017H190.899V147.529H191.816V149.017ZM191.816 146.78H190.899V145.292H191.816V146.78ZM191.816 144.551H190.899V143.063H191.816V144.551ZM191.816 142.314H190.899V140.826H191.816V142.314ZM191.816 140.086H190.899V138.597H191.816V140.086ZM191.816 137.849H190.899V136.36H191.816V137.849ZM191.816 135.612H190.899V134.123H191.816V135.612ZM191.816 133.383H190.899V131.894H191.816V133.383ZM191.816 131.146H190.899V129.657H191.816V131.146ZM193.002 186.98H192.085V185.491H193.002V186.98ZM193.002 184.751H192.085V183.263H193.002V184.751ZM193.002 182.514H192.085V181.026H193.002V182.514ZM193.002 180.286H192.085V178.797H193.002V180.286ZM193.002 178.049H192.085V176.56H193.002V178.049ZM193.002 175.811H192.085V174.323H193.002V175.811ZM193.002 173.583H192.085V172.094H193.002V173.583ZM193.002 171.346H192.085V169.857H193.002V171.346ZM193.002 169.117H192.085V167.629H193.002V169.117ZM193.002 166.88H192.085V165.391H193.002V166.88ZM193.002 164.651H192.085V163.163H193.002V164.651ZM193.002 162.414H192.085V160.926H193.002V162.414ZM193.002 160.186H192.085V158.697H193.002V160.186ZM193.002 157.949H192.085V156.46H193.002V157.949ZM193.002 155.712H192.085V154.223H193.002V155.712ZM193.002 153.483H192.085V151.994H193.002V153.483ZM193.002 151.246H192.085V149.757H193.002V151.246ZM193.002 149.017H192.085V147.529H193.002V149.017ZM193.002 146.78H192.085V145.292H193.002V146.78ZM193.002 144.551H192.085V143.063H193.002V144.551ZM193.002 142.314H192.085V140.826H193.002V142.314ZM193.002 140.086H192.085V138.597H193.002V140.086ZM193.002 137.849H192.085V136.36H193.002V137.849ZM193.002 135.612H192.085V134.123H193.002V135.612ZM193.002 133.383H192.085V131.894H193.002V133.383ZM193.002 131.146H192.085V129.657H193.002V131.146ZM194.188 186.98H193.271V185.491H194.188V186.98ZM194.188 184.751H193.271V183.263H194.188V184.751ZM194.188 182.514H193.271V181.026H194.188V182.514ZM194.188 180.286H193.271V178.797H194.188V180.286ZM194.188 178.049H193.271V176.56H194.188V178.049ZM194.188 175.811H193.271V174.323H194.188V175.811ZM194.188 173.583H193.271V172.094H194.188V173.583ZM194.188 171.346H193.271V169.857H194.188V171.346ZM194.188 169.117H193.271V167.629H194.188V169.117ZM194.188 166.88H193.271V165.391H194.188V166.88ZM194.188 164.651H193.271V163.163H194.188V164.651ZM194.188 162.414H193.271V160.926H194.188V162.414ZM194.188 160.186H193.271V158.697H194.188V160.186ZM194.188 157.949H193.271V156.46H194.188V157.949ZM194.188 155.712H193.271V154.223H194.188V155.712ZM194.188 153.483H193.271V151.994H194.188V153.483ZM194.188 151.246H193.271V149.757H194.188V151.246ZM194.188 149.017H193.271V147.529H194.188V149.017ZM194.188 146.78H193.271V145.292H194.188V146.78ZM194.188 144.551H193.271V143.063H194.188V144.551ZM194.188 142.314H193.271V140.826H194.188V142.314ZM194.188 140.086H193.271V138.597H194.188V140.086ZM194.188 137.849H193.271V136.36H194.188V137.849ZM194.188 135.612H193.271V134.123H194.188V135.612ZM194.188 133.383H193.271V131.894H194.188V133.383ZM194.188 131.146H193.271V129.657H194.188V131.146Z" fill="#FFD549"/>
<path d="M40.9951 44.2617V195.911H87.1901C87.1901 195.911 95.6167 148.193 87.5685 120.086C79.5288 91.9801 66.8468 64.8578 56.1159 56.3217C45.385 47.7855 40.9951 44.2617 40.9951 44.2617Z" fill="#C89C0B"/>
<path d="M85.0798 195.911C88.2923 182.236 104.557 100.155 45.3856 49.6188V195.911H35.5293V37.0879C35.5293 37.0879 112.655 81.3834 88.9483 195.911H85.0798Z" fill="#FFD549"/>
<path d="M58.2609 195.911C63.2142 123.569 55.2754 76.3547 55.2754 76.3547C55.2754 76.3547 61.3304 75.9258 66.3427 77.5321C94.0361 120.457 83.8518 180.757 80.6813 195.911H58.2609Z" fill="#FFD549"/>
<path d="M58.0752 195.911C60.7747 151.439 59.446 119.447 57.8229 100.272C56.1073 80.0125 53.7273 69.5168 53.4751 68.4319C52.8191 68.2974 48.8328 67.5152 45.5614 67.5909C53.9628 111.954 49.2281 181.008 48.0591 195.911H47.7564C48.9169 181.05 53.6769 111.819 45.225 67.4732L45.1914 67.2966L45.368 67.2882C49.001 67.1704 53.5844 68.146 53.6264 68.1544L53.7189 68.1712L53.7442 68.2637C53.7694 68.3647 56.3176 78.8856 58.1257 100.23C59.7488 119.413 61.0775 151.422 58.378 195.911H58.0752Z" fill="#FFD549"/>
<path d="M41.1465 195.911H40.8438L40.9447 72.7132V72.6544L45.2673 67.3477L45.5028 67.5411L41.2474 72.7637L41.1465 195.911Z" fill="#FFD549"/>
<path d="M40.9952 42.706V0L39.3721 5.61789L38.1611 40.8138L40.9952 42.706Z" fill="#FFD549"/>
<path d="M66.5018 78.1174L66.2832 78.999L71.4827 80.2885L71.7014 79.4069L66.5018 78.1174Z" fill="#FFD549"/>
<path d="M69.1093 82.1458L68.8906 83.0273L74.0902 84.3174L74.3089 83.4358L69.1093 82.1458Z" fill="#FFD549"/>
<path d="M70.8524 85.7597L70.6055 86.6338L76.6831 88.3511L76.9301 87.477L70.8524 85.7597Z" fill="#FFD549"/>
<path d="M71.9045 89.9209L71.6572 90.7949L77.7349 92.5141L77.9821 91.6401L71.9045 89.9209Z" fill="#FFD549"/>
<path d="M74.326 94.2952L74.0781 95.1689L80.1539 96.8926L80.4017 96.0188L74.326 94.2952Z" fill="#FFD549"/>
<path d="M75.9192 98.4288L75.6719 99.3027L81.7489 101.023L81.9962 100.149L75.9192 98.4288Z" fill="#FFD549"/>
<path d="M77.642 102.619L77.3955 103.493L83.4744 105.207L83.7209 104.333L77.642 102.619Z" fill="#FFD549"/>
<path d="M78.2868 106.668L78.04 107.542L84.1183 109.258L84.3651 108.384L78.2868 106.668Z" fill="#FFD549"/>
<path d="M78.9202 110.707L78.6729 111.581L84.7499 113.301L84.9972 112.427L78.9202 110.707Z" fill="#FFD549"/>
<path d="M80.4621 115.097L80.2148 115.971L86.2919 117.69L86.5391 116.816L80.4621 115.097Z" fill="#FFD549"/>
<path d="M81.0772 119.448L80.8301 120.322L86.9077 122.041L87.1549 121.167L81.0772 119.448Z" fill="#FFD549"/>
<path d="M82.2265 123.822L81.9795 124.696L88.0571 126.414L88.3042 125.54L82.2265 123.822Z" fill="#FFD549"/>
<path d="M82.5355 127.925L82.2881 128.799L88.3651 130.519L88.6125 129.645L82.5355 127.925Z" fill="#FFD549"/>
<path d="M84.1083 136.393L83.8613 137.267L89.939 138.984L90.1859 138.11L84.1083 136.393Z" fill="#FFD549"/>
<path d="M84.6558 140.622L84.4082 141.496L90.4846 143.218L90.7322 142.344L84.6558 140.622Z" fill="#FFD549"/>
<path d="M84.2757 144.994L84.0283 145.868L90.1053 147.589L90.3528 146.715L84.2757 144.994Z" fill="#FFD549"/>
<path d="M83.9002 149.359L83.6533 150.233L89.7316 151.95L89.9785 151.076L83.9002 149.359Z" fill="#FFD549"/>
<path d="M84.4948 153.891L84.3828 154.792L90.6506 155.571L90.7625 154.669L84.4948 153.891Z" fill="#FFD549"/>
<path d="M84.1148 158.295L84.002 159.196L90.2691 159.981L90.3819 159.079L84.1148 158.295Z" fill="#FFD549"/>
<path d="M83.7438 162.716L83.6318 163.617L89.8996 164.396L90.0116 163.495L83.7438 162.716Z" fill="#FFD549"/>
<path d="M83.3394 167.104L83.2275 168.005L89.4953 168.783L89.6072 167.882L83.3394 167.104Z" fill="#FFD549"/>
<path d="M82.9621 171.522L82.8496 172.423L89.1167 173.205L89.2293 172.304L82.9621 171.522Z" fill="#FFD549"/>
<path d="M82.9017 176.836L82.8828 177.744L89.1973 177.876L89.2162 176.967L82.9017 176.836Z" fill="#FFD549"/>
<path d="M82.5977 181.609L82.5791 182.517L88.8936 182.646L88.9122 181.738L82.5977 181.609Z" fill="#FFD549"/>
<path d="M81.7349 186.367L81.7158 187.275L88.0303 187.408L88.0494 186.5L81.7349 186.367Z" fill="#FFD549"/>
<path d="M83.0873 131.816L82.8398 132.689L88.9169 134.41L89.1643 133.536L83.0873 131.816Z" fill="#FFD549"/>
<path d="M41.323 75.6567L46.0577 70.6443L54.1479 71.5357L54.2404 70.6359L45.7045 69.6855L40.667 75.0343L41.323 75.6567Z" fill="#FFD549"/>
<path d="M41.4161 79.9627L46.6974 74.5382L54.8465 75.3372L54.9306 74.4289L46.3442 73.5879L40.7686 79.3319L41.4161 79.9627Z" fill="#FFD549"/>
<path d="M41.332 84.5623L47.2188 78.0109L55.4015 78.793L55.4856 77.8847L46.8488 77.0605L40.6592 83.9483L41.332 84.5623Z" fill="#FFD549"/>
<path d="M41.4073 88.3222L47.7735 81.7876L56.0488 82.4352L56.116 81.5269L47.4203 80.8457L40.7598 87.683L41.4073 88.3222Z" fill="#FFD549"/>
<path d="M41.3909 92.1316L48.1608 85.7148L56.5705 86.1269L56.6126 85.2186L47.8159 84.7812L40.7686 91.4672L41.3909 92.1316Z" fill="#FFD549"/>
<path d="M41.2979 96.1858L48.5471 89.5839L57.0578 90.2819L57.1335 89.3736L48.2276 88.6504L40.6924 95.513L41.2979 96.1858Z" fill="#FFD549"/>
<path d="M41.2899 100.146L48.9848 93.687L57.4198 94.3262L57.4871 93.4179L48.6821 92.7451L40.7012 99.4479L41.2899 100.146Z" fill="#FFD549"/>
<path d="M41.2809 104.057L49.2197 97.6903L57.8145 98.4304L57.8986 97.5221L48.9338 96.7568L40.709 103.342L41.2809 104.057Z" fill="#FFD549"/>
<path d="M40.9029 108.641L49.5229 101.778L58.1177 102.518L58.2018 101.61L49.237 100.845L40.3311 107.926L40.9029 108.641Z" fill="#FFD549"/>
<path d="M41.2728 112.568L49.7499 105.992L58.3531 106.732L58.4288 105.824L49.4724 105.05L40.7178 111.845L41.2728 112.568Z" fill="#FFD549"/>
<path d="M41.2477 116.311L50.0948 110.5L58.7149 111.24L58.7906 110.331L49.8594 109.558L40.7432 115.546L41.2477 116.311Z" fill="#FFD549"/>
<path d="M41.2387 120.338L50.0858 114.695L58.7143 115.444L58.79 114.527L49.8588 113.762L40.751 119.573L41.2387 120.338Z" fill="#FFD549"/>
<path d="M41.2813 124.796L50.633 119.447L59.2698 120.187L59.3539 119.279L50.4311 118.514L40.8271 123.997L41.2813 124.796Z" fill="#FFD549"/>
<path d="M41.2137 129.009L50.3299 123.947L59.2863 124.443L59.3368 123.534L50.1196 123.021L40.7764 128.21L41.2137 129.009Z" fill="#FFD549"/>
<path d="M41.2474 133.526L51.0953 128.623L59.7489 129.363L59.8246 128.455L50.9187 127.689L40.8438 132.71L41.2474 133.526Z" fill="#FFD549"/>
<path d="M41.1806 137.419L50.4902 133.366L59.7073 133.879L59.7578 132.962L50.322 132.44L40.8105 136.587L41.1806 137.419Z" fill="#FFD549"/>
<path d="M41.1635 141.945L50.4479 138.185L59.7155 138.505L59.7492 137.597L50.2798 137.269L40.8271 141.104L41.1635 141.945Z" fill="#FFD549"/>
<path d="M41.1721 146.124L50.4733 143.147L59.7745 143.425L59.7997 142.508L50.3471 142.23L40.8945 145.258L41.1721 146.124Z" fill="#FFD549"/>
<path d="M41.1631 150.623L50.0774 147.907L59.7319 147.949V147.041L49.9429 146.99L40.9023 149.749L41.1631 150.623Z" fill="#FFD549"/>
<path d="M41.1546 155.51L50.1783 152.869L59.7991 152.667L59.7739 151.759L50.0354 151.961L49.9765 151.977L40.9023 154.635L41.1546 155.51Z" fill="#FFD549"/>
<path d="M41.0713 159.446L50.0193 157.864L59.7915 157.789L59.7831 156.872L49.8932 156.956L40.9199 158.546L41.0713 159.446Z" fill="#FFD549"/>
<path d="M41.0623 164.003L49.8421 162.691L59.732 162.809L59.7404 161.893L49.7832 161.783L40.9277 163.104L41.0623 164.003Z" fill="#FFD549"/>
<path d="M41.0372 168.528L49.632 167.754L59.7238 167.897L59.7406 166.989L49.5984 166.846L40.9531 167.619L41.0372 168.528Z" fill="#FFD549"/>
<path d="M41.0368 173.171L49.4213 172.666L59.3533 172.675V171.758H49.3961L40.9863 172.262L41.0368 173.171Z" fill="#FFD549"/>
<path d="M59.2946 176.669H41.0117V177.577H59.2946V176.669Z" fill="#FFD549"/>
<path d="M58.958 182.64V181.731H48.8579L41.0368 181.277L40.9863 182.186L48.8327 182.64H58.958Z" fill="#FFD549"/>
<path d="M48.5303 187.611H58.723V186.694H48.564L41.0372 186.038L40.9531 186.946L48.5303 187.611Z" fill="#FFD549"/>
<path d="M57.1338 66.9016C57.1338 67.8688 60.0352 68.6509 63.6093 68.6509C67.1835 68.6509 70.0849 67.8688 70.0849 66.9016C70.0849 65.9345 67.1835 65.1523 63.6093 65.1523C60.0352 65.1523 57.1338 65.9345 57.1338 66.9016Z" fill="#FFD549"/>
<path d="M42.1389 79.8531C42.1389 79.8531 34.2421 78.23 32.72 78.0281C31.1978 77.8263 27.8591 78.6336 25.8828 80.6605C25.8828 82.0313 26.2865 82.8891 26.2865 82.8891C26.2865 82.8891 40.6168 85.7485 41.6764 86.1942C42.7444 86.64 42.1389 79.8531 42.1389 79.8531Z" fill="#FFD549"/>
<path d="M82.7326 195.911L85.0453 188.679C82.9008 189.175 76.2907 190.075 59.7402 188.46L59.8327 187.552C80.4115 189.553 85.5162 187.602 85.5667 187.585L86.4749 187.207L83.6913 195.92H82.7326V195.911Z" fill="#FFD549"/>
<path d="M110.258 172.775H98.8711V198.863H110.258V172.775Z" fill="#FFD549"/>
<path d="M118.433 148.892H102.084V198.855H118.433V148.892Z" fill="#FFD549"/>
<path d="M124.774 144.021H116.507V198.855H124.774V144.021Z" fill="#FFD549"/>
<path d="M129.912 161.936H122.2V198.855H129.912V161.936Z" fill="#FFD549"/>
<path d="M109.619 119.961H103.926V150.271H109.619V119.961Z" fill="#FFD549"/>
<path d="M120.266 129.33H114.942V158.723H120.266V129.33Z" fill="#FFD549"/>
<path d="M117.617 95.6221H112.47V154.038H117.617V95.6221Z" fill="#FFD549"/>
<path d="M113.201 83.0322H105.489V154.03H113.201V83.0322Z" fill="#FFD549"/>
<path d="M115.413 81.7285H111.965V99.0868H115.413V81.7285Z" fill="#FFD549"/>
<path d="M110.443 69.8789H106.313V87.9941H110.443V69.8789Z" fill="#FFD549"/>
<path d="M114.303 64.1602H110.031V86.3374H114.303V64.1602Z" fill="#FFD549"/>
<path d="M111.612 59.8213H107.482V74.9088H111.612V59.8213Z" fill="#FFD549"/>
<path d="M112.79 46.457H109.552V66.5738H112.79V46.457Z" fill="#FFD549"/>
<path d="M110.796 37.7783H108.728V62.3692H110.796V37.7783Z" fill="#FFD549"/>
<path d="M111.612 32.8164H110.031V48.3833H111.612V32.8164Z" fill="#FFD549"/>
<path d="M110.443 19.6631H109.753V40.604H110.443V19.6631Z" fill="#FFD549"/>
<path d="M129.054 163.272H119.441V164.349H129.054V163.272Z" fill="#C89C0B"/>
<path d="M129.054 165.745H119.441V166.822H129.054V165.745Z" fill="#C89C0B"/>
<path d="M129.054 168.218H119.441V169.294H129.054V168.218Z" fill="#C89C0B"/>
<path d="M129.054 170.69H119.441V171.767H129.054V170.69Z" fill="#C89C0B"/>
<path d="M129.054 173.162H119.441V174.239H129.054V173.162Z" fill="#C89C0B"/>
<path d="M129.054 175.635H119.441V176.711H129.054V175.635Z" fill="#C89C0B"/>
<path d="M129.054 178.1H119.441V179.176H129.054V178.1Z" fill="#C89C0B"/>
<path d="M129.054 180.572H119.441V181.649H129.054V180.572Z" fill="#C89C0B"/>
<path d="M129.054 183.044H119.441V184.12H129.054V183.044Z" fill="#C89C0B"/>
<path d="M129.054 185.517H119.441V186.593H129.054V185.517Z" fill="#C89C0B"/>
<path d="M129.054 187.989H119.441V189.066H129.054V187.989Z" fill="#C89C0B"/>
<path d="M129.054 190.462H119.441V191.538H129.054V190.462Z" fill="#C89C0B"/>
<path d="M129.054 192.935H119.441V194.011H129.054V192.935Z" fill="#C89C0B"/>
<path d="M129.054 195.407H119.441V196.484H129.054V195.407Z" fill="#C89C0B"/>
<path d="M106.415 173.701H99.7627V174.778H106.415V173.701Z" fill="#C89C0B"/>
<path d="M106.415 176.165H99.7627V177.242H106.415V176.165Z" fill="#C89C0B"/>
<path d="M106.415 178.638H99.7627V179.714H106.415V178.638Z" fill="#C89C0B"/>
<path d="M106.415 181.11H99.7627V182.187H106.415V181.11Z" fill="#C89C0B"/>
<path d="M106.415 183.583H99.7627V184.66H106.415V183.583Z" fill="#C89C0B"/>
<path d="M106.415 186.056H99.7627V187.132H106.415V186.056Z" fill="#C89C0B"/>
<path d="M106.415 188.528H99.7627V189.605H106.415V188.528Z" fill="#C89C0B"/>
<path d="M106.415 191.001H99.7627V192.077H106.415V191.001Z" fill="#C89C0B"/>
<path d="M106.415 193.473H99.7627V194.549H106.415V193.473Z" fill="#C89C0B"/>
<path d="M106.415 195.945H99.7627V197.022H106.415V195.945Z" fill="#C89C0B"/>
<path d="M110.098 150.271H103.446V151.347H110.098V150.271Z" fill="#C89C0B"/>
<path d="M110.098 152.743H103.446V153.82H110.098V152.743Z" fill="#C89C0B"/>
<path d="M110.098 155.216H103.446V156.292H110.098V155.216Z" fill="#C89C0B"/>
<path d="M110.098 157.688H103.446V158.765H110.098V157.688Z" fill="#C89C0B"/>
<path d="M110.098 160.161H103.446V161.238H110.098V160.161Z" fill="#C89C0B"/>
<path d="M110.098 162.633H103.446V163.709H110.098V162.633Z" fill="#C89C0B"/>
<path d="M110.098 165.105H103.446V166.182H110.098V165.105Z" fill="#C89C0B"/>
<path d="M110.098 167.578H103.446V168.655H110.098V167.578Z" fill="#C89C0B"/>
<path d="M110.098 170.051H103.446V171.127H110.098V170.051Z" fill="#C89C0B"/>
<path d="M119.114 131.146H114.942V132.223H119.114V131.146Z" fill="#C89C0B"/>
<path d="M119.114 133.619H114.942V134.696H119.114V133.619Z" fill="#C89C0B"/>
<path d="M119.114 136.092H114.942V137.168H119.114V136.092Z" fill="#C89C0B"/>
<path d="M119.114 138.556H114.942V139.632H119.114V138.556Z" fill="#C89C0B"/>
<path d="M119.114 141.028H114.942V142.105H119.114V141.028Z" fill="#C89C0B"/>
<path d="M119.114 143.501H114.942V144.577H119.114V143.501Z" fill="#C89C0B"/>
<path d="M119.114 145.974H114.942V147.05H119.114V145.974Z" fill="#C89C0B"/>
<path d="M119.114 148.446H114.942V149.523H119.114V148.446Z" fill="#C89C0B"/>
<path d="M119.114 150.918H114.942V151.994H119.114V150.918Z" fill="#C89C0B"/>
<path d="M119.114 153.391H114.942V154.467H119.114V153.391Z" fill="#C89C0B"/>
<path d="M108.854 121.146H104.683V122.223H108.854V121.146Z" fill="#C89C0B"/>
<path d="M108.854 123.619H104.683V124.696H108.854V123.619Z" fill="#C89C0B"/>
<path d="M108.854 126.092H104.683V127.168H108.854V126.092Z" fill="#C89C0B"/>
<path d="M108.854 128.564H104.683V129.641H108.854V128.564Z" fill="#C89C0B"/>
<path d="M108.854 131.028H104.683V132.105H108.854V131.028Z" fill="#C89C0B"/>
<path d="M108.854 133.501H104.683V134.577H108.854V133.501Z" fill="#C89C0B"/>
<path d="M108.854 135.974H104.683V137.05H108.854V135.974Z" fill="#C89C0B"/>
<path d="M108.854 138.446H104.683V139.523H108.854V138.446Z" fill="#C89C0B"/>
<path d="M108.854 140.918H104.683V141.994H108.854V140.918Z" fill="#C89C0B"/>
<path d="M108.854 143.391H104.683V144.467H108.854V143.391Z" fill="#C89C0B"/>
<path d="M116.389 97.1953H112.218V98.2718H116.389V97.1953Z" fill="#C89C0B"/>
<path d="M116.389 99.668H112.218V100.744H116.389V99.668Z" fill="#C89C0B"/>
<path d="M116.389 102.141H112.218V103.217H116.389V102.141Z" fill="#C89C0B"/>
<path d="M116.389 104.613H112.218V105.69H116.389V104.613Z" fill="#C89C0B"/>
<path d="M116.389 107.086H112.218V108.162H116.389V107.086Z" fill="#C89C0B"/>
<path d="M116.389 109.558H112.218V110.634H116.389V109.558Z" fill="#C89C0B"/>
<path d="M116.389 112.03H112.218V113.107H116.389V112.03Z" fill="#C89C0B"/>
<path d="M116.389 114.503H112.218V115.579H116.389V114.503Z" fill="#C89C0B"/>
<path d="M116.389 116.976H112.218V118.052H116.389V116.976Z" fill="#C89C0B"/>
<path d="M116.389 119.439H112.218V120.516H116.389V119.439Z" fill="#C89C0B"/>
<path d="M110.939 83.958H106.768V85.0345H110.939V83.958Z" fill="#C89C0B"/>
<path d="M110.939 86.4307H106.768V87.5072H110.939V86.4307Z" fill="#C89C0B"/>
<path d="M110.939 88.9033H106.768V89.9798H110.939V88.9033Z" fill="#C89C0B"/>
<path d="M110.939 91.376H106.768V92.4525H110.939V91.376Z" fill="#C89C0B"/>
<path d="M110.939 93.8486H106.768V94.9251H110.939V93.8486Z" fill="#C89C0B"/>
<path d="M110.939 96.3203H106.768V97.3968H110.939V96.3203Z" fill="#C89C0B"/>
<path d="M110.939 98.793H106.768V99.8694H110.939V98.793Z" fill="#C89C0B"/>
<path d="M110.939 101.266H106.768V102.342H110.939V101.266Z" fill="#C89C0B"/>
<path d="M110.939 103.729H106.768V104.806H110.939V103.729Z" fill="#C89C0B"/>
<path d="M110.939 106.202H106.768V107.279H110.939V106.202Z" fill="#C89C0B"/>
<path d="M110.788 61.0234H108.357V62.0158H110.788V61.0234Z" fill="#C89C0B"/>
<path d="M110.788 63.3105H108.357V64.3029H110.788V63.3105Z" fill="#C89C0B"/>
<path d="M110.788 65.5986H108.357V66.591H110.788V65.5986Z" fill="#C89C0B"/>
<path d="M110.788 67.8857H108.357V68.8781H110.788V67.8857Z" fill="#C89C0B"/>
<path d="M110.788 70.1738H108.357V71.1662H110.788V70.1738Z" fill="#C89C0B"/>
<path d="M110.788 72.4609H108.357V73.4533H110.788V72.4609Z" fill="#C89C0B"/>
<path d="M110.788 74.749H108.357V75.7414H110.788V74.749Z" fill="#C89C0B"/>
<path d="M110.788 77.0361H108.357V78.0285H110.788V77.0361Z" fill="#C89C0B"/>
<path d="M171.649 109.465L180.227 119.456V195.785H172.633L171.649 109.465Z" fill="#FFD448"/>
<path d="M171.649 128.825L180.227 119.456V195.785H172.633L171.649 128.825Z" fill="#C89C0B"/>
<path d="M172.633 71.2832V195.785H154.477V90.601L172.633 71.2832Z" fill="#FFD549"/>
<path d="M159.262 88.7001H169.993V77.3887L159.262 88.7001Z" fill="#C89C0B"/>
<path d="M170.001 92.502H157.201V103.401H170.001V92.502Z" fill="#C89C0B"/>
<path d="M170.001 105.588H157.201V107.102H170.001V105.588Z" fill="#C89C0B"/>
<path d="M170.001 107.816H157.201V109.33H170.001V107.816Z" fill="#C89C0B"/>
<path d="M170.001 110.054H157.201V111.568H170.001V110.054Z" fill="#C89C0B"/>
<path d="M170.001 112.282H157.201V113.796H170.001V112.282Z" fill="#C89C0B"/>
<path d="M170.001 114.52H157.201V116.033H170.001V114.52Z" fill="#C89C0B"/>
<path d="M170.001 116.757H157.201V118.271H170.001V116.757Z" fill="#C89C0B"/>
<path d="M170.001 118.985H157.201V120.499H170.001V118.985Z" fill="#C89C0B"/>
<path d="M170.001 121.222H157.201V122.735H170.001V121.222Z" fill="#C89C0B"/>
<path d="M170.001 123.451H157.201V124.965H170.001V123.451Z" fill="#C89C0B"/>
<path d="M170.001 128.682H157.201V130.195H170.001V128.682Z" fill="#C89C0B"/>
<path d="M170.001 130.91H157.201V132.424H170.001V130.91Z" fill="#C89C0B"/>
<path d="M170.001 133.147H157.201V134.661H170.001V133.147Z" fill="#C89C0B"/>
<path d="M170.001 135.385H157.201V136.899H170.001V135.385Z" fill="#C89C0B"/>
<path d="M170.001 137.613H157.201V139.127H170.001V137.613Z" fill="#C89C0B"/>
<path d="M170.001 139.851H157.201V141.364H170.001V139.851Z" fill="#C89C0B"/>
<path d="M170.001 142.079H157.201V143.593H170.001V142.079Z" fill="#C89C0B"/>
<path d="M170.001 144.315H157.201V145.829H170.001V144.315Z" fill="#C89C0B"/>
<path d="M170.001 146.553H157.201V148.067H170.001V146.553Z" fill="#C89C0B"/>
<path d="M170.001 151.775H157.201V153.289H170.001V151.775Z" fill="#C89C0B"/>
<path d="M170.001 154.004H157.201V155.518H170.001V154.004Z" fill="#C89C0B"/>
<path d="M170.001 156.241H157.201V157.755H170.001V156.241Z" fill="#C89C0B"/>
<path d="M170.001 158.479H157.201V159.992H170.001V158.479Z" fill="#C89C0B"/>
<path d="M170.001 160.707H157.201V162.221H170.001V160.707Z" fill="#C89C0B"/>
<path d="M170.001 162.944H157.201V164.458H170.001V162.944Z" fill="#C89C0B"/>
<path d="M170.001 165.173H157.201V166.687H170.001V165.173Z" fill="#C89C0B"/>
<path d="M170.001 167.409H157.201V168.923H170.001V167.409Z" fill="#C89C0B"/>
<path d="M170.001 169.646H157.201V171.16H170.001V169.646Z" fill="#C89C0B"/>
<path d="M170.001 174.869H157.201V176.383H170.001V174.869Z" fill="#C89C0B"/>
<path d="M170.001 177.106H157.201V178.62H170.001V177.106Z" fill="#C89C0B"/>
<path d="M170.001 179.335H157.201V180.849H170.001V179.335Z" fill="#C89C0B"/>
<path d="M170.001 181.572H157.201V183.086H170.001V181.572Z" fill="#C89C0B"/>
<path d="M170.001 183.801H157.201V185.315H170.001V183.801Z" fill="#C89C0B"/>
<path d="M170.001 186.038H157.201V187.552H170.001V186.038Z" fill="#C89C0B"/>
<path d="M170.001 188.274H157.201V189.788H170.001V188.274Z" fill="#C89C0B"/>
<path d="M170.001 190.503H157.201V192.017H170.001V190.503Z" fill="#C89C0B"/>
<path d="M170.001 192.74H157.201V194.254H170.001V192.74Z" fill="#C89C0B"/>
<path d="M172.633 74.5802V43.1016H171.868V74.9923L172.633 74.5802Z" fill="#FFD549"/>
</svg>
